# xmcd
#
# Track frame offsets: 
#        150
#        17371
#        29921
#        46561
#        59725
#        69672
#        84723
#        100412
#        118184
#        146798
#        161286
#        173858
#        184690
#
# Disc length: 2730 seconds
#
# Revision: 0
# Processed by: cddbd v1.5.2PL0 Copyright (c) Steve Scherf et al.
# Submitted via: ExactAudioCopy v0.95b4
#
DISCID=b50aa80d
DTITLE=The Rocking Birds - Memphis Sundown
DYEAR=2008
DGENRE=Blues
TTITLE0=Folsom prison blues
TTITLE1=Bikers farwell
TTITLE2=You never say a word
TTITLE3=Just because
TTITLE4=Mama,he treats your daughter man
TTITLE5=Memphis sundown
TTITLE6=Take these chains
TTITLE7=I hate to go
TTITLE8=Shake that boogie
TTITLE9=Fever
TTITLE10=Heart`s in sorrow
TTITLE11=That`s allright mama
TTITLE12=Reckless woman
EXTD=
EXTT0=
EXTT1=
EXTT2=
EXTT3=
EXTT4=
EXTT5=
EXTT6=
EXTT7=
EXTT8=
EXTT9=
EXTT10=
EXTT11=
EXTT12=
PLAYORDER=
